<svg viewBox="0 0 22.0001 19.2506" xmlns="http://www.w3.org/2000/svg" xmlns:xlink="http://www.w3.org/1999/xlink" width="22.000061" height="19.250624" fill="none" customFrame="#000000">
	<path id="Vector" d="M19.25 2.75008L17.3499 2.75008L15.9742 -1.52588e-05L6.02455 -1.52588e-05L4.65015 2.75143L2.75275 2.75481C1.24009 2.75751 0.00869272 3.99021 0.00738656 5.50355L0 16.4998C0 18.0166 1.23337 19.2506 2.7501 19.2506L19.25 19.2506C20.7667 19.2506 22.0001 18.0172 22.0001 16.5005L22.0001 5.50013C22 3.98346 20.7666 2.75008 19.25 2.75008ZM10.9997 15.813C7.9669 15.813 5.49947 13.3456 5.49947 10.3128C5.49947 7.28002 7.9669 4.8126 10.9997 4.8126C14.0324 4.8126 16.4999 7.28002 16.4999 10.3128C16.4999 13.3456 14.0324 15.813 10.9997 15.813Z" fill="rgb(151.938,151.938,151.938)" fill-rule="nonzero" />
</svg>
