<svg id="visual" viewBox="0 0 800 210" width="800" height="210" xmlns="http://www.w3.org/2000/svg" xmlns:xlink="http://www.w3.org/1999/xlink" version="1.1"><rect x="0" y="0" width="800" height="210" fill="#202020"></rect><path d="M353 0L378 0L378 19L659 19L659 38L598 38L598 57L601 57L601 76L651 76L651 95L466 95L466 115L472 115L472 134L695 134L695 153L565 153L565 172L594 172L594 191L520 191L520 210L0 210L0 191L0 191L0 172L0 172L0 153L0 153L0 134L0 134L0 115L0 115L0 95L0 95L0 76L0 76L0 57L0 57L0 38L0 38L0 19L0 19L0 0L0 0Z" fill="#3137c9"></path><path d="M509 0L561 0L561 19L451 19L451 38L365 38L365 57L488 57L488 76L587 76L587 95L466 95L466 115L341 115L341 134L615 134L615 153L378 153L378 172L434 172L434 191L576 191L576 210L0 210L0 191L0 191L0 172L0 172L0 153L0 153L0 134L0 134L0 115L0 115L0 95L0 95L0 76L0 76L0 57L0 57L0 38L0 38L0 19L0 19L0 0L0 0Z" fill="#373090"></path><path d="M503 0L570 0L570 19L227 19L227 38L309 38L309 57L318 57L318 76L403 76L403 95L320 95L320 115L518 115L518 134L404 134L404 153L502 153L502 172L574 172L574 191L563 191L563 210L0 210L0 191L0 191L0 172L0 172L0 153L0 153L0 134L0 134L0 115L0 115L0 95L0 95L0 76L0 76L0 57L0 57L0 38L0 38L0 19L0 19L0 0L0 0Z" fill="#32295a"></path><path d="M500 0L286 0L286 19L428 19L428 38L365 38L365 57L312 57L312 76L393 76L393 95L432 95L432 115L182 115L182 134L218 134L218 153L490 153L490 172L280 172L280 191L253 191L253 210L0 210L0 191L0 191L0 172L0 172L0 153L0 153L0 134L0 134L0 115L0 115L0 95L0 95L0 76L0 76L0 57L0 57L0 38L0 38L0 19L0 19L0 0L0 0Z" fill="#242229"></path><path d="M229 0L404 0L404 19L259 19L259 38L316 38L316 57L308 57L308 76L154 76L154 95L345 95L345 115L339 115L339 134L363 134L363 153L432 153L432 172L159 172L159 191L170 191L170 210L0 210L0 191L0 191L0 172L0 172L0 153L0 153L0 134L0 134L0 115L0 115L0 95L0 95L0 76L0 76L0 57L0 57L0 38L0 38L0 19L0 19L0 0L0 0Z" fill="#202020"></path><path d="M144 0L271 0L271 19L166 19L166 38L196 38L196 57L184 57L184 76L324 76L324 95L345 95L345 115L162 115L162 134L177 134L177 153L217 153L217 172L221 172L221 191L307 191L307 210L0 210L0 191L0 191L0 172L0 172L0 153L0 153L0 134L0 134L0 115L0 115L0 95L0 95L0 76L0 76L0 57L0 57L0 38L0 38L0 19L0 19L0 0L0 0Z" fill="#242229"></path><path d="M196 0L163 0L163 19L190 19L190 38L191 38L191 57L202 57L202 76L174 76L174 95L134 95L134 115L283 115L283 134L251 134L251 153L87 153L87 172L138 172L138 191L162 191L162 210L0 210L0 191L0 191L0 172L0 172L0 153L0 153L0 134L0 134L0 115L0 115L0 95L0 95L0 76L0 76L0 57L0 57L0 38L0 38L0 19L0 19L0 0L0 0Z" fill="#32295a"></path><path d="M194 0L132 0L132 19L102 19L102 38L173 38L173 57L49 57L49 76L56 76L56 95L126 95L126 115L131 115L131 134L92 134L92 153L39 153L39 172L132 172L132 191L79 191L79 210L0 210L0 191L0 191L0 172L0 172L0 153L0 153L0 134L0 134L0 115L0 115L0 95L0 95L0 76L0 76L0 57L0 57L0 38L0 38L0 19L0 19L0 0L0 0Z" fill="#373090"></path><path d="M105 0L15 0L15 19L84 19L84 38L18 38L18 57L37 57L37 76L109 76L109 95L105 95L105 115L25 115L25 134L21 134L21 153L28 153L28 172L49 172L49 191L13 191L13 210L0 210L0 191L0 191L0 172L0 172L0 153L0 153L0 134L0 134L0 115L0 115L0 95L0 95L0 76L0 76L0 57L0 57L0 38L0 38L0 19L0 19L0 0L0 0Z" fill="#3137c9"></path></svg>