<svg id="visual" viewBox="0 0 800 210" width="800" height="210" xmlns="http://www.w3.org/2000/svg" xmlns:xlink="http://www.w3.org/1999/xlink" version="1.1"><rect x="0" y="0" width="800" height="210" fill="#202020"></rect><path d="M410 210L382 210L382 191L70 191L70 172L138 172L138 153L135 153L135 134L79 134L79 115L284 115L284 95L278 95L278 76L30 76L30 57L174 57L174 38L142 38L142 19L225 19L225 0L800 0L800 19L800 19L800 38L800 38L800 57L800 57L800 76L800 76L800 95L800 95L800 115L800 115L800 134L800 134L800 153L800 153L800 172L800 172L800 191L800 191L800 210L800 210Z" fill="#202020"></path><path d="M236 210L179 210L179 191L301 191L301 172L397 172L397 153L260 153L260 134L150 134L150 115L284 115L284 95L423 95L423 76L119 76L119 57L383 57L383 38L319 38L319 19L162 19L162 0L800 0L800 19L800 19L800 38L800 38L800 57L800 57L800 76L800 76L800 95L800 95L800 115L800 115L800 134L800 134L800 153L800 153L800 172L800 172L800 191L800 191L800 210L800 210Z" fill="#2f2850"></path><path d="M243 210L169 210L169 191L550 191L550 172L459 172L459 153L449 153L449 134L355 134L355 115L447 115L447 95L226 95L226 76L353 76L353 57L244 57L244 38L164 38L164 19L177 19L177 0L800 0L800 19L800 19L800 38L800 38L800 57L800 57L800 76L800 76L800 95L800 95L800 115L800 115L800 134L800 134L800 153L800 153L800 172L800 172L800 191L800 191L800 210L800 210Z" fill="#372f85"></path><path d="M247 210L484 210L484 191L327 191L327 172L397 172L397 153L456 153L456 134L366 134L366 115L322 115L322 95L600 95L600 76L560 76L560 57L257 57L257 38L491 38L491 19L521 19L521 0L800 0L800 19L800 19L800 38L800 38L800 57L800 57L800 76L800 76L800 95L800 95L800 115L800 115L800 134L800 134L800 153L800 153L800 172L800 172L800 191L800 191L800 210L800 210Z" fill="#3436bd"></path><path d="M548 210L353 210L353 191L514 191L514 172L452 172L452 153L460 153L460 134L630 134L630 115L418 115L418 95L426 95L426 76L399 76L399 57L322 57L322 38L626 38L626 19L613 19L613 0L800 0L800 19L800 19L800 38L800 38L800 57L800 57L800 76L800 76L800 95L800 95L800 115L800 115L800 134L800 134L800 153L800 153L800 172L800 172L800 191L800 191L800 210L800 210Z" fill="#3137c9"></path><path d="M642 210L501 210L501 191L618 191L618 172L584 172L584 153L598 153L598 134L442 134L442 115L419 115L419 95L622 95L622 76L606 76L606 57L561 57L561 38L557 38L557 19L461 19L461 0L800 0L800 19L800 19L800 38L800 38L800 57L800 57L800 76L800 76L800 95L800 95L800 115L800 115L800 134L800 134L800 153L800 153L800 172L800 172L800 191L800 191L800 210L800 210Z" fill="#3436bd"></path><path d="M585 210L621 210L621 191L591 191L591 172L589 172L589 153L578 153L578 134L608 134L608 115L653 115L653 95L487 95L487 76L523 76L523 57L705 57L705 38L649 38L649 19L622 19L622 0L800 0L800 19L800 19L800 38L800 38L800 57L800 57L800 76L800 76L800 95L800 95L800 115L800 115L800 134L800 134L800 153L800 153L800 172L800 172L800 191L800 191L800 210L800 210Z" fill="#372f85"></path><path d="M587 210L656 210L656 191L688 191L688 172L609 172L609 153L748 153L748 134L740 134L740 115L662 115L662 95L656 95L656 76L700 76L700 57L759 57L759 38L656 38L656 19L714 19L714 0L800 0L800 19L800 19L800 38L800 38L800 57L800 57L800 76L800 76L800 95L800 95L800 115L800 115L800 134L800 134L800 153L800 153L800 172L800 172L800 191L800 191L800 210L800 210Z" fill="#2f2850"></path><path d="M685 210L786 210L786 191L709 191L709 172L782 172L782 153L761 153L761 134L681 134L681 115L685 115L685 95L775 95L775 76L779 76L779 57L771 57L771 38L748 38L748 19L788 19L788 0L800 0L800 19L800 19L800 38L800 38L800 57L800 57L800 76L800 76L800 95L800 95L800 115L800 115L800 134L800 134L800 153L800 153L800 172L800 172L800 191L800 191L800 210L800 210Z" fill="#202020"></path></svg>